<svg version="1" xmlns="http://www.w3.org/2000/svg" width="1333.333" height="1333.333" viewBox="0 0 1000.000000 1000.000000"><path d="M49.2 191.8c.7 1 6 8 11.8 15.7 5.7 7.7 21.8 29.3 35.8 48 13.9 18.7 26.2 35.1 27.2 36.5 5.3 7 67.1 89.9 78.7 105.5 7.3 9.9 13.9 18.7 14.6 19.5.7.8 3.7 4.9 6.7 9s6 8.2 6.7 9c.6.8 4.3 5.8 8.2 11 3.9 5.2 7.4 10 7.8 10.5.5.6 2.1 2.7 3.6 4.7l2.8 3.8-26.7 45.2c-14.7 24.9-27.4 46.5-28.3 48-.9 1.5-5.9 10-11.2 19-10.8 18.4-29.3 49.7-32 54.3-1 1.6-3.1 5.2-4.7 8-2.8 4.8-5.5 9.5-19.4 33-22.6 38.3-27.3 46.2-28.3 48-1.9 3.5-7.9 13.6-9.7 16.3-1 1.5-2.1 3.4-2.5 4.1-1.1 2.3-35.4 60.5-36.3 61.6-.5.6-1.3 2.3-1.9 3.8L51 809h188.7l6.1-10.8c3.3-5.9 26.6-47.8 51.8-93.2 25.1-45.4 46.5-83.9 47.4-85.5.9-1.7 4.7-8.5 8.4-15.3 3.8-6.7 7.1-12.2 7.5-12.2.4 0 1.5 1 2.6 2.2 1 1.3 6.4 7.2 11.9 13.3 5.6 6 10.6 11.5 11.1 12.1 5.2 5.8 18.3 20.1 19.6 21.3.8.9 4.3 4.6 7.7 8.3l6.2 6.7V809h159.7l-.1-75.6c-.1-48.6.3-76.2.9-77.4 1-1.7 15.1-17.4 32.4-35.9 1.8-2 6.3-6.9 10-10.9 13.6-15.1 16.1-17.6 17-16.6.4.5 2.5 4 4.6 7.9 2.1 3.8 5.7 10.4 8 14.5s5.6 10 7.2 13c1.7 3 4.3 7.7 5.8 10.5 5.2 9.3 17.2 31 19.8 35.7 1.5 2.6 4.6 8.3 7 12.5 2.4 4.3 4.7 8.5 5.1 9.3.4.8 1.2 2.4 1.9 3.5s5.4 9.6 10.6 19c5.2 9.3 10.2 18.3 11.1 20 2.8 5 8.2 14.7 10.8 19.5 1.4 2.5 4.5 8.1 7 12.5s5.5 9.8 6.7 12c1.1 2.2 4.9 9.1 8.4 15.2l6.3 11.3h94.4c51.9 0 94.4-.2 94.4-.5 0-.2-8-14-17.9-30.7-9.8-16.7-18.8-31.9-19.8-33.8-1.1-1.9-7.1-12.1-13.3-22.5-6.2-10.5-12.7-21.5-14.5-24.5-1.7-3-4.3-7.4-5.8-9.7-1.5-2.4-2.7-4.4-2.7-4.7 0-.2-1.8-3.3-4-6.7-2.2-3.5-4.3-7-4.7-7.8-.3-.8-9.2-15.9-19.6-33.5-10.4-17.7-19.8-33.5-20.8-35.3-1-1.8-9.3-15.9-18.5-31.5-27.7-47-52.5-89.1-54.4-92.3-.9-1.7-2.7-4.7-4-6.8l-2.2-3.7 11-14.8c17.4-23.3 45.2-60.5 46.8-62.7 11.4-15.3 18.9-25.5 20.5-27.5 1.1-1.4 12.7-16.9 25.8-34.5 13.1-17.6 36.7-49.3 52.5-70.5 15.8-21.2 29.5-39.6 30.6-41 1-1.4 5.5-7.3 10-13.3l8.1-10.7-99.2.2-99.2.3-26.3 39c-14.5 21.4-26.9 40-27.6 41.1-.7 1.2-4.9 7.5-9.4 14-24.5 36.2-67.7 101-71.8 107.9-2.6 4.4-12.4 20.1-21.7 35-13.7 21.8-16.9 26.4-17 24 0-1.7-.1-61.2-.1-132.3l-.1-129.2H420v264.5l-8.2-13.3c-4.6-7.2-14.8-23.7-22.8-36.5-7.9-12.7-24.8-38.7-37.5-57.7-23.6-35.2-73.1-108.9-93.8-139.5l-11.4-17-99.2-.3c-95.1-.2-99.2-.1-97.9 1.6z"/></svg>